<?xml version="1.0" encoding="utf-8"?>
<!-- Generator: Adobe Illustrator 27.1.1, SVG Export Plug-In . SVG Version: 6.00 Build 0)  -->
<svg version="1.1" id="Layer_1" xmlns="http://www.w3.org/2000/svg" xmlns:xlink="http://www.w3.org/1999/xlink" x="0px" y="0px"
	 viewBox="0 0 80 80" style="enable-background:new 0 0 80 80;" xml:space="preserve">
<style type="text/css">
	.st0{fill:none;stroke:#FFFFFF;stroke-linecap:round;stroke-linejoin:round;stroke-miterlimit:10;}
</style>
<g>
	<path class="st0" d="M63.45,40c0,12.53-10.03,22.56-22.56,22.56S18.34,52.53,18.34,40s10.03-22.56,22.56-22.56
		S63.45,27.47,63.45,40z"/>
	<path class="st0" d="M48.41,38.25c0.75,0.5,1.25,0.75,1.5,1.25c0.25,0.25,0.25,0.75,0,1c-0.25,0.25-0.5,0.75-1.5,1.25l-9.52,6.27
		c-1,0.75-1.5,1-2.01,1c-0.25,0-0.75-0.25-1-0.5c-0.25-0.25-0.25-1-0.25-2.26V33.73c0-1.25,0-1.75,0.25-2.26
		c0.25-0.25,0.5-0.5,1-0.5c0.5,0,1,0.25,2.01,1L48.41,38.25z"/>
</g>
</svg>
