<?xml version="1.0" encoding="utf-8"?>
<!-- Generator: Adobe Illustrator 27.1.1, SVG Export Plug-In . SVG Version: 6.00 Build 0)  -->
<svg version="1.1" id="Layer_1" xmlns="http://www.w3.org/2000/svg" xmlns:xlink="http://www.w3.org/1999/xlink" x="0px" y="0px"
	 viewBox="0 0 80 80" style="enable-background:new 0 0 80 80;" xml:space="preserve">
<style type="text/css">
	.st0{fill:none;stroke:#FFFFFF;stroke-linecap:round;stroke-linejoin:round;stroke-miterlimit:10;}
</style>
<g id="Iconly_Light_Edit_Square_1_" transform="translate(192 832.904)">
	<g id="Edit_Square-4_1_" transform="translate(2 2)">
		<path id="Stroke_1-32_1_" class="st0" d="M-154.8-816.12h-9.06c-7.44,0-12.11,5.27-12.11,12.73v20.13
			c0,7.46,4.65,12.73,12.11,12.73h21.36c7.47,0,12.11-5.27,12.11-12.73v-9.75"/>
		<path id="Stroke_3-30_1_" class="st0" d="M-161.25-796.44l18.09-18.09c2.25-2.25,5.91-2.25,8.16,0l2.95,2.94
			c2.25,2.25,2.25,5.91,0,8.16c0,0,0,0,0,0l-18.18,18.18c-0.99,0.99-2.32,1.54-3.72,1.54h-9.07l0.23-9.15
			C-162.75-794.2-162.2-795.48-161.25-796.44z"/>
		<path id="Stroke_5-22_1_" class="st0" d="M-145.9-811.73l11.05,11.05"/>
	</g>
</g>
</svg>
