<?xml version="1.0" encoding="utf-8"?>
<!-- Generator: Adobe Illustrator 27.1.1, SVG Export Plug-In . SVG Version: 6.00 Build 0)  -->
<svg version="1.1" id="Layer_1" xmlns="http://www.w3.org/2000/svg" xmlns:xlink="http://www.w3.org/1999/xlink" x="0px" y="0px"
	 viewBox="0 0 80 80" style="enable-background:new 0 0 80 80;" xml:space="preserve">
<style type="text/css">
	.st0{fill:none;stroke:#FFFFFF;stroke-linecap:round;stroke-linejoin:round;stroke-miterlimit:10;}
</style>
<g>
	<path class="st0" d="M40.21,43.2l-5.15,2.86c-0.28,0.16-0.64,0-0.72-0.31l-2.21-8.97c-0.04-0.14-0.02-0.29,0.05-0.42l0.85-1.63
		c0.07-0.14,0.27-0.16,0.37-0.04l6.9,7.98C40.45,42.83,40.41,43.09,40.21,43.2z"/>
	<path class="st0" d="M41.46,43.2l5.15,2.86c0.28,0.16,0.64,0,0.72-0.31l2.21-8.97c0.04-0.14,0.02-0.29-0.05-0.42l-0.85-1.63
		c-0.07-0.14-0.27-0.16-0.37-0.04l-6.9,7.98C41.22,42.83,41.26,43.09,41.46,43.2z"/>
	<path class="st0" d="M41.77,47.73h-1.71c-0.11,0-0.21-0.07-0.25-0.18l-1.13-3.27c-0.04-0.11,0.01-0.24,0.11-0.3l1.79-1.01
		c0.15-0.09,0.34-0.08,0.49,0l1.82,1.05c0.1,0.06,0.15,0.18,0.11,0.29l-0.98,3.23C41.99,47.65,41.89,47.73,41.77,47.73z"/>
	<path class="st0" d="M43.54,53.51l-1.48-5.48c-0.03-0.18-0.19-0.31-0.37-0.31h-1.67c-0.18,0-0.34,0.13-0.37,0.31l-1.37,5.53
		c-0.11,0.64,0,1.29,0.32,1.86l1.76,2.88c0.22,0.39,0.78,0.4,1.01,0.01l1.84-2.86C43.55,54.88,43.67,54.18,43.54,53.51z"/>
	<circle class="st0" cx="40.86" cy="25.2" r="8.7"/>
	<path class="st0" d="M53.22,49.97h-4.33c-0.16,0-0.3,0.13-0.3,0.3v1.91c0,0.18,0.1,0.35,0.26,0.43l1.95,1.02
		c0.16,0.08,0.35,0.08,0.5-0.01l1.97-1.12c0.15-0.09,0.25-0.25,0.25-0.42v-1.82C53.52,50.1,53.38,49.97,53.22,49.97z"/>
	<path class="st0" d="M32.16,36.78l-5.68,2.81c-2.26,1.12-3.79,3.3-4.08,5.8l-1.22,10.62c-0.27,2.31,1.54,4.33,3.86,4.33h31.96
		c2.32,0,4.13-2.02,3.86-4.33l-1.22-10.62c-0.29-2.5-1.82-4.69-4.08-5.8l-5.68-2.81"/>
</g>
</svg>
