<?xml version="1.0" encoding="utf-8"?>
<!-- Generator: Adobe Illustrator 27.1.1, SVG Export Plug-In . SVG Version: 6.00 Build 0)  -->
<svg version="1.1" id="Layer_1" xmlns="http://www.w3.org/2000/svg" xmlns:xlink="http://www.w3.org/1999/xlink" x="0px" y="0px"
	 viewBox="0 0 80 80" style="enable-background:new 0 0 80 80;" xml:space="preserve">
<style type="text/css">
	.st0{fill:none;stroke:#FFFFFF;stroke-linecap:round;stroke-linejoin:round;stroke-miterlimit:10;}
</style>
<g>
	<path class="st0" d="M39.21,42.77l-5.07,2.82c-0.28,0.16-0.63,0-0.71-0.31l-2.17-8.82c-0.03-0.14-0.02-0.29,0.05-0.42l0.84-1.61
		c0.07-0.14,0.26-0.16,0.36-0.04l6.79,7.85C39.45,42.4,39.4,42.66,39.21,42.77z"/>
	<path class="st0" d="M40.44,42.77l5.07,2.82c0.28,0.16,0.63,0,0.71-0.31l2.17-8.82c0.03-0.14,0.02-0.29-0.05-0.42l-0.84-1.61
		c-0.07-0.14-0.26-0.16-0.36-0.04l-6.79,7.85C40.2,42.4,40.24,42.66,40.44,42.77z"/>
	<path class="st0" d="M40.75,47.22h-1.68c-0.11,0-0.21-0.07-0.24-0.17l-1.11-3.22c-0.04-0.11,0.01-0.24,0.11-0.29l1.76-0.99
		c0.15-0.08,0.33-0.08,0.48,0l1.79,1.03c0.1,0.06,0.15,0.17,0.11,0.28l-0.97,3.18C40.96,47.15,40.86,47.22,40.75,47.22z"/>
	<path class="st0" d="M42.48,55.11l-1.45-7.59c-0.03-0.18-0.19-0.3-0.37-0.3h-1.64c-0.18,0-0.33,0.13-0.37,0.31l-1.35,7.63
		c-0.11,0.63,0,1.27,0.31,1.83l1.73,3.06c0.22,0.38,0.77,0.39,0.99,0.01l1.81-3.04C42.49,56.45,42.61,55.77,42.48,55.11z"/>
	<circle class="st0" cx="39.85" cy="25.06" r="8.56"/>
	<path class="st0" d="M52.01,49.43h-4.26c-0.16,0-0.29,0.13-0.29,0.29v1.88c0,0.18,0.1,0.34,0.26,0.42l1.92,1.01
		c0.15,0.08,0.34,0.08,0.49-0.01l1.94-1.1c0.15-0.08,0.24-0.24,0.24-0.42v-1.79C52.3,49.56,52.17,49.43,52.01,49.43z"/>
	<path class="st0" d="M48.72,36.45l5.58,2.76c2.22,1.1,3.73,3.25,4.01,5.71l1.69,14.71"/>
	<path class="st0" d="M31.28,36.45l-5.58,2.76c-2.22,1.1-3.73,3.25-4.01,5.71l-1.69,14.71"/>
</g>
</svg>
