<?xml version="1.0" encoding="utf-8"?>
<!-- Generator: Adobe Illustrator 27.1.1, SVG Export Plug-In . SVG Version: 6.00 Build 0)  -->
<svg version="1.1" id="Layer_1" xmlns="http://www.w3.org/2000/svg" xmlns:xlink="http://www.w3.org/1999/xlink" x="0px" y="0px"
	 viewBox="0 0 80 80" style="enable-background:new 0 0 80 80;" xml:space="preserve">
<style type="text/css">
	.st0{fill:none;stroke:#FFFFFF;stroke-linecap:round;stroke-linejoin:round;stroke-miterlimit:10;}
</style>
<g id="Iconly_Light_Bag_1_" transform="translate(384 736.904)">
	<g id="Bag-3_1_" transform="translate(2.5 1.5)">
		<path id="Path_33955_1_" class="st0" d="M-337.43-677.1h-16.96c-6.23,0-11.01-2.83-9.65-14.21l1.58-15.43
			c0.83-5.68,3.72-7.85,6.25-7.85h20.67c2.57,0,5.28,2.34,6.25,7.85l1.58,15.43C-326.55-681.21-331.2-677.1-337.43-677.1z"/>
		<path id="Path_33956_1_" class="st0" d="M-337.15-715.03c0-4.85-3.93-8.77-8.77-8.77l0,0l0,0c-4.85-0.02-8.79,3.89-8.81,8.74
			c0,0.01,0,0.03,0,0.04l0,0"/>
		<path id="Line_192_1_" class="st0" d="M-339.9-705.89h-0.09"/>
		<path id="Line_193_1_" class="st0" d="M-351.74-705.89h-0.09"/>
	</g>
</g>
</svg>
