<?xml version="1.0" encoding="utf-8"?>
<!-- Generator: Adobe Illustrator 27.1.1, SVG Export Plug-In . SVG Version: 6.00 Build 0)  -->
<svg version="1.1" id="Layer_1" xmlns="http://www.w3.org/2000/svg" xmlns:xlink="http://www.w3.org/1999/xlink" x="0px" y="0px"
	 viewBox="0 0 80 80" style="enable-background:new 0 0 80 80;" xml:space="preserve">
<style type="text/css">
	.st0{fill:none;stroke:#FFFFFF;stroke-width:4.0528;stroke-linecap:round;stroke-linejoin:round;stroke-miterlimit:10;}
</style>
<g id="Iconly_Light_Message_00000168797104650778818730000002593822189794772397_" transform="translate(144 736.904)">
	<g id="Message-3_00000051347718692742432520000005252817674711155354_" transform="translate(2 3.5)">
		<path id="Path_445_00000139286805864819779320000009670421703973403557_" class="st0" d="M-89.77-707.53l-11.53,9.28
			c-2.18,1.71-5.24,1.71-7.42,0l-11.62-9.28"/>
		<path id="Rectangle_511_00000168109648841048094160000014333311862681200266_" class="st0" d="M-117.82-722.55h25.47
			c3.68,0.04,7.18,1.59,9.68,4.3c2.5,2.71,3.8,6.32,3.58,10v17.64c0.22,3.68-1.08,7.29-3.58,10c-2.5,2.7-6,4.25-9.67,4.3h-25.48
			c-7.89,0.02-13.21-6.4-13.21-14.28v-17.64C-131.02-716.13-125.71-722.55-117.82-722.55z"/>
	</g>
</g>
</svg>
