<?xml version="1.0" encoding="utf-8"?>
<!-- Generator: Adobe Illustrator 27.1.1, SVG Export Plug-In . SVG Version: 6.00 Build 0)  -->
<svg version="1.1" id="Layer_1" xmlns="http://www.w3.org/2000/svg" xmlns:xlink="http://www.w3.org/1999/xlink" x="0px" y="0px"
	 viewBox="0 0 80 80" style="enable-background:new 0 0 80 80;" xml:space="preserve">
<style type="text/css">
	.st0{fill:none;stroke:#FFFFFF;stroke-width:4.0528;stroke-linecap:round;stroke-linejoin:round;stroke-miterlimit:10;}
</style>
<g id="Iconly_Light_Calling_00000152252658724422433100000007724925995555641255_" transform="translate(720 832.904)">
	<g id="Calling-4_00000119107021793144618300000008102206355429875389_" transform="translate(2 2)">
		<path id="Stroke_1-58_00000101811416242752950340000013329603696028690085_" class="st0" d="M-707.62-813.91
			c0.85-1.42,5.57-6.57,8.92-6.41c1.01,0.15,1.93,0.65,2.61,1.4l0,0c2.58,2.72,4.82,5.75,6.67,9.02c0.66,3.16-3.1,4.98-1.96,8.16
			c2.71,6.96,8.22,12.46,15.18,15.17c3.18,1.15,5-2.61,8.16-1.95c3.27,1.84,6.3,4.08,9.02,6.67l0,0c0.75,0.68,1.25,1.61,1.4,2.61
			c0.12,3.54-5.34,8.31-6.41,8.92c-2.51,1.8-5.79,1.77-9.79-0.09c-11.15-4.63-28.98-22.13-33.71-33.7
			C-709.34-808.1-709.46-811.41-707.62-813.91z"/>
		<path id="Path-8_00000163778162633764764780000004570469320751557012_" class="st0" d="M-676.35-819.65c10,1.11,17.9,9,19.02,19"
			/>
		<path id="Path-9_00000060744687601704099300000004954682521620885177_" class="st0" d="M-676.35-810.08
			c4.78,0.93,8.53,4.67,9.46,9.46"/>
	</g>
</g>
</svg>
