<?xml version="1.0" encoding="utf-8"?>
<!-- Generator: Adobe Illustrator 27.1.1, SVG Export Plug-In . SVG Version: 6.00 Build 0)  -->
<svg version="1.1" id="Layer_1" xmlns="http://www.w3.org/2000/svg" xmlns:xlink="http://www.w3.org/1999/xlink" x="0px" y="0px"
	 viewBox="0 0 80 80" style="enable-background:new 0 0 80 80;" xml:space="preserve">
<style type="text/css">
	.st0{fill:none;stroke:#FFFFFF;stroke-linecap:round;stroke-linejoin:round;stroke-miterlimit:10;}
</style>
<g id="Iconly_Light_Camera_1_" transform="translate(528 784.904)">
	<g id="Camera-4_1_" transform="translate(2 3)">
		<path id="Stroke_1-38_1_" class="st0" d="M-475.62-759.98L-475.62-759.98c-0.95,0-1.81-0.55-2.22-1.4
			c-0.73-1.55-1.66-3.53-2.21-4.61c-0.69-1.56-2.24-2.57-3.95-2.55c-0.03,0-11.94,0-11.98,0c-1.71-0.02-3.26,0.99-3.95,2.55
			c-0.55,1.08-1.48,3.06-2.21,4.61c-0.41,0.86-1.27,1.4-2.22,1.4l0,0c-5.09,0-9.21,4.12-9.21,9.21c0,0,0,0,0,0.01v15.14
			c0,5.09,4.13,9.21,9.21,9.21h28.75c5.09,0,9.21-4.12,9.21-9.21l0,0v-15.14C-466.41-755.85-470.54-759.98-475.62-759.98
			L-475.62-759.98z"/>
		<path id="Stroke_3-34_1_" class="st0" d="M-498.11-744.11c0,4.48,3.64,8.1,8.11,8.1s8.1-3.64,8.1-8.11c0-4.47-3.63-8.09-8.1-8.1
			C-494.47-752.21-498.09-748.58-498.11-744.11z"/>
		<path id="Fill_5-10_1_" class="st0" d="M-477.51-750.06c-0.26-0.03-0.52-0.1-0.76-0.2c-0.3-0.13-0.58-0.33-0.81-0.57
			c-0.46-0.48-0.72-1.12-0.72-1.78c0-0.34,0.07-0.69,0.21-1c0.14-0.33,0.34-0.63,0.6-0.87c0.23-0.21,0.49-0.37,0.78-0.5
			c0.94-0.37,2.02-0.15,2.75,0.55c0.2,0.19,0.36,0.42,0.48,0.67l0.07,0.14c0.14,0.32,0.21,0.67,0.21,1.02
			c-0.01,0.67-0.27,1.32-0.74,1.8c-0.41,0.42-0.96,0.69-1.55,0.75h-0.26H-477.51z"/>
	</g>
</g>
</svg>
