<?xml version="1.0" encoding="utf-8"?>
<!-- Generator: Adobe Illustrator 27.1.1, SVG Export Plug-In . SVG Version: 6.00 Build 0)  -->
<svg version="1.1" id="Layer_1" xmlns="http://www.w3.org/2000/svg" xmlns:xlink="http://www.w3.org/1999/xlink" x="0px" y="0px"
	 viewBox="0 0 80 80" style="enable-background:new 0 0 80 80;" xml:space="preserve">
<style type="text/css">
	.st0{fill:none;stroke:#FFFFFF;stroke-linecap:round;stroke-linejoin:round;stroke-miterlimit:10;}
</style>
<path class="st0" d="M32.71,39.67l4.31,4.31c0.61,0.61,1.59,0.61,2.19,0l9.72-9.72 M42.09,16.59l3.15,3.15
	c0.45,0.45,1.11,0.63,1.73,0.46l4.31-1.16c0.95-0.26,1.93,0.31,2.19,1.26l1.16,4.31c0.17,0.61,0.65,1.09,1.26,1.26l4.31,1.16
	c0.95,0.26,1.52,1.24,1.26,2.19l-1.16,4.31c-0.17,0.62,0.01,1.28,0.46,1.73l3.15,3.15c0.7,0.7,0.7,1.83,0,2.53l-3.15,3.15
	c-0.45,0.45-0.63,1.11-0.46,1.73l1.16,4.31c0.26,0.95-0.31,1.93-1.26,2.19l-4.31,1.16c-0.61,0.17-1.09,0.65-1.26,1.26l-1.16,4.31
	c-0.26,0.95-1.24,1.52-2.19,1.26l-4.31-1.16c-0.62-0.17-1.28,0.01-1.73,0.46l-3.15,3.15c-0.7,0.7-1.83,0.7-2.53,0l-3.15-3.15
	c-0.45-0.45-1.11-0.63-1.73-0.46l-4.31,1.16c-0.95,0.26-1.93-0.31-2.19-1.26l-1.16-4.31c-0.17-0.61-0.65-1.09-1.26-1.26l-4.31-1.16
	c-0.95-0.26-1.52-1.24-1.26-2.19l1.16-4.31c0.17-0.62-0.01-1.28-0.46-1.73l-3.15-3.15c-0.7-0.7-0.7-1.83,0-2.53l3.15-3.15
	c0.45-0.45,0.63-1.11,0.46-1.73l-1.16-4.31c-0.26-0.95,0.31-1.93,1.26-2.19l4.31-1.16c0.61-0.17,1.09-0.65,1.26-1.26l1.16-4.31
	c0.26-0.95,1.24-1.52,2.19-1.26l4.31,1.16c0.62,0.17,1.28-0.01,1.73-0.46l3.15-3.15C40.26,15.89,41.39,15.89,42.09,16.59z"/>
</svg>
