<?xml version="1.0" encoding="utf-8"?>
<!-- Generator: Adobe Illustrator 27.1.1, SVG Export Plug-In . SVG Version: 6.00 Build 0)  -->
<svg version="1.1" id="Layer_1" xmlns="http://www.w3.org/2000/svg" xmlns:xlink="http://www.w3.org/1999/xlink" x="0px" y="0px"
	 viewBox="0 0 80 80" style="enable-background:new 0 0 80 80;" xml:space="preserve">
<style type="text/css">
	.st0{fill:none;stroke:#FFFFFF;stroke-linecap:round;stroke-linejoin:round;stroke-miterlimit:10;}
</style>
<g>
	<rect x="35.51" y="55.11" class="st0" width="13.5" height="8.98"/>
	<line class="st0" x1="30.32" y1="64.09" x2="54.69" y2="64.09"/>
	<line class="st0" x1="17.98" y1="47.56" x2="66.88" y2="47.56"/>
	<path class="st0" d="M62.14,18.69H22.72c-2.62,0-4.74,2.12-4.74,4.74v26.94c0,2.62,2.12,4.74,4.74,4.74h39.42
		c2.62,0,4.74-2.12,4.74-4.74V23.43C66.88,20.82,64.76,18.69,62.14,18.69z"/>
	<g id="Iconly_Light_Edit_1_" transform="translate(144 832.904)">
		<g id="Edit-4_1_" transform="translate(3.5 3.5)">
			<path id="Stroke_1-50_1_" class="st0" d="M-103.61-795.54h6.08"/>
			<path id="Stroke_3-46_1_" class="st0" d="M-104.42-809.78c0.65-0.79,1.82-0.91,2.61-0.26c0.04,0.04,0.09,0.07,0.13,0.11
				l1.32,1.04c0.87,0.54,1.14,1.68,0.6,2.55c-0.03,0.05-0.06,0.09-0.09,0.14l-7.9,10.08c-0.26,0.34-0.67,0.54-1.1,0.54l-3.05,0.04
				l-0.69-2.97c-0.1-0.42,0-0.86,0.26-1.19L-104.42-809.78z"/>
			<path id="Stroke_5-31_1_" class="st0" d="M-105.89-807.89l4.57,3.58"/>
		</g>
	</g>
</g>
</svg>
